<svg width="206" height="36" viewBox="0 0 206 36" fill="none" xmlns="http://www.w3.org/2000/svg">
<path d="M77.0068 15.6177L72.2113 30.6039H66.7948L64.3756 22.597L61.828 30.6039H56.4115L51.616 15.6177H56.8183L59.4302 24.1385L62.1919 15.6177H66.8376L69.4495 24.2455L72.2113 15.6177H77.0068Z" fill="#212121"/>
<path d="M89.5817 24.7379C89.5817 24.8093 89.5603 25.1875 89.5175 25.8726H81.3821C81.5534 26.315 81.8388 26.6576 82.2385 26.9002C82.6381 27.1286 83.1376 27.2427 83.7371 27.2427C84.2509 27.2427 84.6791 27.1785 85.0216 27.0501C85.3784 26.9216 85.7638 26.7004 86.1777 26.3864L88.7039 28.934C87.5621 30.19 85.8565 30.818 83.5872 30.818C82.1742 30.818 80.9325 30.5611 79.8621 30.0473C78.7916 29.5192 77.9638 28.7913 77.3786 27.8636C76.7935 26.9359 76.5009 25.894 76.5009 24.7379C76.5009 23.5676 76.7863 22.5257 77.3572 21.6122C77.9424 20.6845 78.7345 19.9637 79.7336 19.4499C80.747 18.9361 81.8816 18.6792 83.1376 18.6792C84.3222 18.6792 85.3998 18.9147 86.3704 19.3857C87.3552 19.8567 88.133 20.5489 88.7039 21.4624C89.2891 22.3758 89.5817 23.4677 89.5817 24.7379ZM83.1804 21.9762C82.6809 21.9762 82.267 22.1118 81.9387 22.3829C81.6105 22.6541 81.3964 23.0395 81.2965 23.539H85.0644C84.9645 23.0537 84.7504 22.6755 84.4222 22.4043C84.0939 22.1189 83.68 21.9762 83.1804 21.9762Z" fill="#212121"/>
<path d="M96.0401 18.6792C98.0954 18.6792 99.6654 19.1431 100.75 20.0708C101.835 20.9842 102.377 22.3972 102.377 24.3097V30.6039H97.8813V29.0625C97.3247 30.2328 96.2185 30.818 94.5629 30.818C93.6352 30.818 92.8431 30.661 92.1865 30.347C91.5443 30.0188 91.0519 29.5834 90.7093 29.0411C90.3811 28.4845 90.2169 27.8636 90.2169 27.1785C90.2169 26.0224 90.6594 25.1447 91.5443 24.5452C92.4292 23.9458 93.7708 23.6461 95.5691 23.6461H97.5173C97.3603 22.7326 96.6253 22.2759 95.3122 22.2759C94.7841 22.2759 94.2489 22.3615 93.7066 22.5328C93.1642 22.6898 92.7004 22.911 92.315 23.1965L90.7736 20.0066C91.4444 19.5927 92.2508 19.2715 93.1928 19.0432C94.149 18.8005 95.0981 18.6792 96.0401 18.6792ZM96.0187 27.9064C96.3613 27.9064 96.6681 27.8136 96.9393 27.6281C97.2105 27.4426 97.4103 27.1642 97.5387 26.7932V25.9796H96.3399C95.355 25.9796 94.8626 26.3079 94.8626 26.9644C94.8626 27.2356 94.9626 27.464 95.1624 27.6495C95.3765 27.8208 95.6619 27.9064 96.0187 27.9064Z" fill="#212121"/>
<path d="M113.096 30.1972C112.368 30.6111 111.376 30.818 110.12 30.818C108.479 30.818 107.216 30.4255 106.331 29.6405C105.446 28.8413 105.003 27.6495 105.003 26.0653V23.068H103.398V19.5356H105.003V16.26H109.842V19.5356H112.24V23.068H109.842V26.0224C109.842 26.3793 109.935 26.6576 110.12 26.8574C110.306 27.0572 110.548 27.1571 110.848 27.1571C111.262 27.1571 111.626 27.0501 111.94 26.836L113.096 30.1972Z" fill="#212121"/>
<path d="M122.451 18.6792C123.892 18.6792 125.048 19.1145 125.919 19.9851C126.804 20.8558 127.246 22.1688 127.246 23.9244V30.6039H122.408V24.7593C122.408 23.4177 121.93 22.7469 120.974 22.7469C120.431 22.7469 119.989 22.9396 119.646 23.3249C119.318 23.696 119.154 24.2883 119.154 25.1019V30.6039H114.315V14.7186H119.154V19.8353C120.053 19.0646 121.152 18.6792 122.451 18.6792Z" fill="#212121"/>
<path d="M142.017 24.7379C142.017 24.8093 141.995 25.1875 141.952 25.8726H133.817C133.988 26.315 134.274 26.6576 134.673 26.9002C135.073 27.1286 135.573 27.2427 136.172 27.2427C136.686 27.2427 137.114 27.1785 137.457 27.0501C137.813 26.9216 138.199 26.7004 138.613 26.3864L141.139 28.934C139.997 30.19 138.291 30.818 136.022 30.818C134.609 30.818 133.367 30.5611 132.297 30.0473C131.227 29.5192 130.399 28.7913 129.814 27.8636C129.228 26.9359 128.936 25.894 128.936 24.7379C128.936 23.5676 129.221 22.5257 129.792 21.6122C130.377 20.6845 131.169 19.9637 132.169 19.4499C133.182 18.9361 134.317 18.6792 135.573 18.6792C136.757 18.6792 137.835 18.9147 138.805 19.3857C139.79 19.8567 140.568 20.5489 141.139 21.4624C141.724 22.3758 142.017 23.4677 142.017 24.7379ZM135.615 21.9762C135.116 21.9762 134.702 22.1118 134.374 22.3829C134.045 22.6541 133.831 23.0395 133.731 23.539H137.499C137.399 23.0537 137.185 22.6755 136.857 22.4043C136.529 22.1189 136.115 21.9762 135.615 21.9762Z" fill="#212121"/>
<path d="M148.146 20.1564C149.003 19.1716 150.266 18.6792 151.936 18.6792V22.961C151.55 22.9039 151.194 22.8753 150.865 22.8753C149.21 22.8753 148.382 23.7174 148.382 25.4016V30.6039H143.544V18.8933H148.146V20.1564Z" fill="#212121"/>
<path d="M170.087 27.9921H164.393L163.386 30.6039H158.248L164.799 15.6177H169.766L176.317 30.6039H171.094L170.087 27.9921ZM168.696 24.3526L167.24 20.5846L165.784 24.3526H168.696Z" fill="#212121"/>
<path d="M184.788 18.6792C185.816 18.6792 186.758 18.929 187.614 19.4285C188.485 19.9138 189.17 20.6203 189.669 21.548C190.183 22.4757 190.44 23.5462 190.44 24.7593C190.44 25.9725 190.183 27.0429 189.669 27.9706C189.17 28.8841 188.485 29.5906 187.614 30.0901C186.758 30.5754 185.816 30.818 184.788 30.818C183.489 30.818 182.497 30.4826 181.812 29.8118V34.7572H176.974V18.8933H181.577V19.8567C182.276 19.0717 183.347 18.6792 184.788 18.6792ZM183.632 27.0501C184.189 27.0501 184.645 26.8503 185.002 26.4506C185.359 26.051 185.537 25.4872 185.537 24.7593C185.537 24.0314 185.359 23.4677 185.002 23.068C184.645 22.6541 184.189 22.4472 183.632 22.4472C183.075 22.4472 182.619 22.6541 182.262 23.068C181.905 23.4677 181.727 24.0314 181.727 24.7593C181.727 25.4872 181.905 26.051 182.262 26.4506C182.619 26.8503 183.075 27.0501 183.632 27.0501Z" fill="#212121"/>
<path d="M199.779 18.6792C200.806 18.6792 201.748 18.929 202.604 19.4285C203.475 19.9138 204.16 20.6203 204.66 21.548C205.174 22.4757 205.43 23.5462 205.43 24.7593C205.43 25.9725 205.174 27.0429 204.66 27.9706C204.16 28.8841 203.475 29.5906 202.604 30.0901C201.748 30.5754 200.806 30.818 199.779 30.818C198.48 30.818 197.488 30.4826 196.803 29.8118V34.7572H191.964V18.8933H196.567V19.8567C197.267 19.0717 198.337 18.6792 199.779 18.6792ZM198.622 27.0501C199.179 27.0501 199.636 26.8503 199.993 26.4506C200.349 26.051 200.528 25.4872 200.528 24.7593C200.528 24.0314 200.349 23.4677 199.993 23.068C199.636 22.6541 199.179 22.4472 198.622 22.4472C198.066 22.4472 197.609 22.6541 197.252 23.068C196.895 23.4677 196.717 24.0314 196.717 24.7593C196.717 25.4872 196.895 26.051 197.252 26.4506C197.609 26.8503 198.066 27.0501 198.622 27.0501Z" fill="#212121"/>
<circle cx="25.5" cy="17.5" r="17.5" fill="#E4573B"/>
<path d="M34.6371 12L31.1171 23H27.1414L25.3657 17.1229L23.4957 23H19.52L16 12H19.8186L21.7357 18.2543L23.7629 12H27.1729L29.09 18.3329L31.1171 12H34.6371Z" fill="white"/>
</svg>
