<svg width="205" height="36" viewBox="0 0 205 36" fill="none" xmlns="http://www.w3.org/2000/svg">
<path d="M76.5068 15.6177L71.7113 30.6039H66.2948L63.8756 22.597L61.328 30.6039H55.9115L51.116 15.6177H56.3183L58.9302 24.1385L61.6919 15.6177H66.3376L68.9495 24.2455L71.7113 15.6177H76.5068Z" fill="white"/>
<path d="M89.0817 24.7379C89.0817 24.8093 89.0603 25.1875 89.0175 25.8726H80.8821C81.0534 26.315 81.3388 26.6576 81.7385 26.9002C82.1381 27.1286 82.6376 27.2427 83.2371 27.2427C83.7509 27.2427 84.1791 27.1785 84.5216 27.0501C84.8784 26.9216 85.2638 26.7004 85.6777 26.3864L88.2039 28.934C87.0621 30.19 85.3565 30.818 83.0872 30.818C81.6742 30.818 80.4325 30.5611 79.3621 30.0473C78.2916 29.5192 77.4638 28.7913 76.8786 27.8636C76.2935 26.9359 76.0009 25.894 76.0009 24.7379C76.0009 23.5676 76.2863 22.5257 76.8572 21.6122C77.4424 20.6845 78.2345 19.9637 79.2336 19.4499C80.247 18.9361 81.3816 18.6792 82.6376 18.6792C83.8222 18.6792 84.8998 18.9147 85.8704 19.3857C86.8552 19.8567 87.633 20.5489 88.2039 21.4624C88.7891 22.3758 89.0817 23.4677 89.0817 24.7379ZM82.6804 21.9762C82.1809 21.9762 81.767 22.1118 81.4387 22.3829C81.1105 22.6541 80.8964 23.0395 80.7965 23.539H84.5644C84.4645 23.0537 84.2504 22.6755 83.9222 22.4043C83.5939 22.1189 83.18 21.9762 82.6804 21.9762Z" fill="white"/>
<path d="M95.5401 18.6792C97.5954 18.6792 99.1654 19.1431 100.25 20.0708C101.335 20.9842 101.877 22.3972 101.877 24.3097V30.6039H97.3813V29.0625C96.8247 30.2328 95.7185 30.818 94.0629 30.818C93.1352 30.818 92.3431 30.661 91.6865 30.347C91.0443 30.0188 90.5519 29.5834 90.2093 29.0411C89.8811 28.4845 89.7169 27.8636 89.7169 27.1785C89.7169 26.0224 90.1594 25.1447 91.0443 24.5452C91.9292 23.9458 93.2708 23.6461 95.0691 23.6461H97.0173C96.8603 22.7326 96.1253 22.2759 94.8122 22.2759C94.2841 22.2759 93.7489 22.3615 93.2066 22.5328C92.6642 22.6898 92.2004 22.911 91.815 23.1965L90.2736 20.0066C90.9444 19.5927 91.7508 19.2715 92.6928 19.0432C93.649 18.8005 94.5981 18.6792 95.5401 18.6792ZM95.5187 27.9064C95.8613 27.9064 96.1681 27.8136 96.4393 27.6281C96.7105 27.4426 96.9103 27.1642 97.0387 26.7932V25.9796H95.8399C94.855 25.9796 94.3626 26.3079 94.3626 26.9644C94.3626 27.2356 94.4626 27.464 94.6624 27.6495C94.8765 27.8208 95.1619 27.9064 95.5187 27.9064Z" fill="white"/>
<path d="M112.596 30.1972C111.868 30.6111 110.876 30.818 109.62 30.818C107.979 30.818 106.716 30.4255 105.831 29.6405C104.946 28.8413 104.503 27.6495 104.503 26.0653V23.068H102.898V19.5356H104.503V16.26H109.342V19.5356H111.74V23.068H109.342V26.0224C109.342 26.3793 109.435 26.6576 109.62 26.8574C109.806 27.0572 110.048 27.1571 110.348 27.1571C110.762 27.1571 111.126 27.0501 111.44 26.836L112.596 30.1972Z" fill="white"/>
<path d="M121.951 18.6792C123.392 18.6792 124.548 19.1145 125.419 19.9851C126.304 20.8558 126.746 22.1688 126.746 23.9244V30.6039H121.908V24.7593C121.908 23.4177 121.43 22.7469 120.474 22.7469C119.931 22.7469 119.489 22.9396 119.146 23.3249C118.818 23.696 118.654 24.2883 118.654 25.1019V30.6039H113.815V14.7186H118.654V19.8353C119.553 19.0646 120.652 18.6792 121.951 18.6792Z" fill="white"/>
<path d="M141.517 24.7379C141.517 24.8093 141.495 25.1875 141.452 25.8726H133.317C133.488 26.315 133.774 26.6576 134.173 26.9002C134.573 27.1286 135.073 27.2427 135.672 27.2427C136.186 27.2427 136.614 27.1785 136.957 27.0501C137.313 26.9216 137.699 26.7004 138.113 26.3864L140.639 28.934C139.497 30.19 137.791 30.818 135.522 30.818C134.109 30.818 132.867 30.5611 131.797 30.0473C130.727 29.5192 129.899 28.7913 129.314 27.8636C128.728 26.9359 128.436 25.894 128.436 24.7379C128.436 23.5676 128.721 22.5257 129.292 21.6122C129.877 20.6845 130.669 19.9637 131.669 19.4499C132.682 18.9361 133.817 18.6792 135.073 18.6792C136.257 18.6792 137.335 18.9147 138.305 19.3857C139.29 19.8567 140.068 20.5489 140.639 21.4624C141.224 22.3758 141.517 23.4677 141.517 24.7379ZM135.115 21.9762C134.616 21.9762 134.202 22.1118 133.874 22.3829C133.545 22.6541 133.331 23.0395 133.231 23.539H136.999C136.899 23.0537 136.685 22.6755 136.357 22.4043C136.029 22.1189 135.615 21.9762 135.115 21.9762Z" fill="white"/>
<path d="M147.646 20.1564C148.503 19.1716 149.766 18.6792 151.436 18.6792V22.961C151.05 22.9039 150.694 22.8753 150.365 22.8753C148.71 22.8753 147.882 23.7174 147.882 25.4016V30.6039H143.044V18.8933H147.646V20.1564Z" fill="white"/>
<path d="M169.587 27.9921H163.893L162.886 30.6039H157.748L164.299 15.6177H169.266L175.817 30.6039H170.594L169.587 27.9921ZM168.196 24.3526L166.74 20.5846L165.284 24.3526H168.196Z" fill="white"/>
<path d="M184.288 18.6792C185.316 18.6792 186.258 18.929 187.114 19.4285C187.985 19.9138 188.67 20.6203 189.169 21.548C189.683 22.4757 189.94 23.5462 189.94 24.7593C189.94 25.9725 189.683 27.0429 189.169 27.9706C188.67 28.8841 187.985 29.5906 187.114 30.0901C186.258 30.5754 185.316 30.818 184.288 30.818C182.989 30.818 181.997 30.4826 181.312 29.8118V34.7572H176.474V18.8933H181.077V19.8567C181.776 19.0717 182.847 18.6792 184.288 18.6792ZM183.132 27.0501C183.689 27.0501 184.145 26.8503 184.502 26.4506C184.859 26.051 185.037 25.4872 185.037 24.7593C185.037 24.0314 184.859 23.4677 184.502 23.068C184.145 22.6541 183.689 22.4472 183.132 22.4472C182.575 22.4472 182.119 22.6541 181.762 23.068C181.405 23.4677 181.227 24.0314 181.227 24.7593C181.227 25.4872 181.405 26.051 181.762 26.4506C182.119 26.8503 182.575 27.0501 183.132 27.0501Z" fill="white"/>
<path d="M199.279 18.6792C200.306 18.6792 201.248 18.929 202.104 19.4285C202.975 19.9138 203.66 20.6203 204.16 21.548C204.674 22.4757 204.93 23.5462 204.93 24.7593C204.93 25.9725 204.674 27.0429 204.16 27.9706C203.66 28.8841 202.975 29.5906 202.104 30.0901C201.248 30.5754 200.306 30.818 199.279 30.818C197.98 30.818 196.988 30.4826 196.303 29.8118V34.7572H191.464V18.8933H196.067V19.8567C196.767 19.0717 197.837 18.6792 199.279 18.6792ZM198.122 27.0501C198.679 27.0501 199.136 26.8503 199.493 26.4506C199.849 26.051 200.028 25.4872 200.028 24.7593C200.028 24.0314 199.849 23.4677 199.493 23.068C199.136 22.6541 198.679 22.4472 198.122 22.4472C197.566 22.4472 197.109 22.6541 196.752 23.068C196.395 23.4677 196.217 24.0314 196.217 24.7593C196.217 25.4872 196.395 26.051 196.752 26.4506C197.109 26.8503 197.566 27.0501 198.122 27.0501Z" fill="white"/>
<circle cx="25" cy="17.5" r="17.5" fill="#E4573B"/>
<path d="M34.1371 12L30.6171 23H26.6414L24.8657 17.1229L22.9957 23H19.02L15.5 12H19.3186L21.2357 18.2543L23.2629 12H26.6729L28.59 18.3329L30.6171 12H34.1371Z" fill="white"/>
</svg>
